<?xml version="1.0" encoding="UTF-8"?>
<svg width="200" height="60" viewBox="0 0 200 60" xmlns="http://www.w3.org/2000/svg">
  <!-- Counter base -->
  <rect x="5" y="15" width="190" height="30" rx="6" ry="6" fill="#8B4513" stroke="#654321" stroke-width="2"/>
  <rect x="8" y="18" width="184" height="24" rx="4" ry="4" fill="#D2691E"/>
  
  <!-- Counter top surface -->
  <rect x="3" y="13" width="194" height="6" rx="3" ry="3" fill="#F5F5DC" stroke="#8B4513" stroke-width="1"/>
  
  <!-- Support legs -->
  <rect x="15" y="45" width="6" height="12" rx="1" ry="1" fill="#654321"/>
  <rect x="50" y="45" width="6" height="12" rx="1" ry="1" fill="#654321"/>
  <rect x="95" y="45" width="6" height="12" rx="1" ry="1" fill="#654321"/>
  <rect x="144" y="45" width="6" height="12" rx="1" ry="1" fill="#654321"/>
  <rect x="179" y="45" width="6" height="12" rx="1" ry="1" fill="#654321"/>
  
  <!-- Front panel details -->
  <rect x="20" y="22" width="25" height="16" rx="2" ry="2" fill="#A0522D"/>
  <rect x="55" y="22" width="25" height="16" rx="2" ry="2" fill="#A0522D"/>
  <rect x="90" y="22" width="25" height="16" rx="2" ry="2" fill="#A0522D"/>
  <rect x="125" y="22" width="25" height="16" rx="2" ry="2" fill="#A0522D"/>
  <rect x="160" y="22" width="25" height="16" rx="2" ry="2" fill="#A0522D"/>
  
  <!-- Service indicator positions -->
  <circle cx="30" cy="5" r="3" fill="#F5F5DC" stroke="#8B4513"/>
  <circle cx="70" cy="5" r="3" fill="#F5F5DC" stroke="#8B4513"/>
  <circle cx="100" cy="5" r="3" fill="#F5F5DC" stroke="#8B4513"/>
  <circle cx="130" cy="5" r="3" fill="#F5F5DC" stroke="#8B4513"/>
  <circle cx="170" cy="5" r="3" fill="#F5F5DC" stroke="#8B4513"/>
  
  <!-- Counter label -->
  <rect x="75" y="26" width="50" height="12" rx="2" ry="2" fill="#F5F5DC"/>
  <text x="100" y="34" text-anchor="middle" font-family="Arial, sans-serif" font-size="8" fill="#8B4513">COUNTER</text>
</svg>
