<?xml version="1.0" encoding="UTF-8"?>
<svg width="180" height="140" viewBox="0 0 180 140" xmlns="http://www.w3.org/2000/svg">
  <!-- Large oval table base -->
  <ellipse cx="90" cy="70" rx="85" ry="65" fill="#8B4513" stroke="#654321" stroke-width="2"/>
  <ellipse cx="90" cy="70" rx="75" ry="55" fill="#D2691E"/>
  
  <!-- Chair positions - 12 chairs total arranged around oval -->
  <!-- Top chairs -->
  <rect x="50" y="0" width="18" height="8" rx="2" ry="2" fill="#654321"/>
  <rect x="85" y="0" width="18" height="8" rx="2" ry="2" fill="#654321"/>
  <rect x="120" y="0" width="18" height="8" rx="2" ry="2" fill="#654321"/>
  
  <!-- Bottom chairs -->
  <rect x="50" y="132" width="18" height="8" rx="2" ry="2" fill="#654321"/>
  <rect x="85" y="132" width="18" height="8" rx="2" ry="2" fill="#654321"/>
  <rect x="120" y="132" width="18" height="8" rx="2" ry="2" fill="#654321"/>
  
  <!-- Left side chairs -->
  <rect x="0" y="25" width="8" height="18" rx="2" ry="2" fill="#654321"/>
  <rect x="0" y="55" width="8" height="18" rx="2" ry="2" fill="#654321"/>
  <rect x="0" y="85" width="8" height="18" rx="2" ry="2" fill="#654321"/>
  
  <!-- Right side chairs -->
  <rect x="172" y="25" width="8" height="18" rx="2" ry="2" fill="#654321"/>
  <rect x="172" y="55" width="8" height="18" rx="2" ry="2" fill="#654321"/>
  <rect x="172" y="85" width="8" height="18" rx="2" ry="2" fill="#654321"/>
  
  <!-- Table number area -->
  <circle cx="90" cy="70" r="15" fill="#F5F5DC" stroke="#8B4513" stroke-width="1"/>
  <text x="90" y="77" text-anchor="middle" font-family="Arial, sans-serif" font-size="16" fill="#8B4513">12</text>
</svg>
