<?xml version="1.0" encoding="UTF-8"?>
<svg width="140" height="120" viewBox="0 0 140 120" xmlns="http://www.w3.org/2000/svg">
  <!-- Table base -->
  <rect x="5" y="5" width="130" height="110" rx="12" ry="12" fill="#8B4513" stroke="#654321" stroke-width="2"/>
  <rect x="10" y="10" width="120" height="100" rx="10" ry="10" fill="#D2691E"/>
  
  <!-- Chair positions - 8 chairs total -->
  <!-- Left side chairs -->
  <rect x="0" y="25" width="8" height="20" rx="2" ry="2" fill="#654321"/>
  <rect x="0" y="75" width="8" height="20" rx="2" ry="2" fill="#654321"/>
  
  <!-- Right side chairs -->
  <rect x="132" y="25" width="8" height="20" rx="2" ry="2" fill="#654321"/>
  <rect x="132" y="75" width="8" height="20" rx="2" ry="2" fill="#654321"/>
  
  <!-- Top chairs -->
  <rect x="30" y="0" width="20" height="8" rx="2" ry="2" fill="#654321"/>
  <rect x="90" y="0" width="20" height="8" rx="2" ry="2" fill="#654321"/>
  
  <!-- Bottom chairs -->
  <rect x="30" y="112" width="20" height="8" rx="2" ry="2" fill="#654321"/>
  <rect x="90" y="112" width="20" height="8" rx="2" ry="2" fill="#654321"/>
  
  <!-- Table number area -->
  <circle cx="70" cy="60" r="12" fill="#F5F5DC" stroke="#8B4513" stroke-width="1"/>
  <text x="70" y="66" text-anchor="middle" font-family="Arial, sans-serif" font-size="14" fill="#8B4513">8</text>
</svg>
