<svg width="120" height="100" viewBox="0 0 120 100" xmlns="http://www.w3.org/2000/svg">
  <rect x="5" y="5" width="110" height="90" rx="12" ry="12" fill="#8B4513" stroke="#654321" stroke-width="2"/>
  <rect x="10" y="10" width="100" height="80" rx="10" ry="10" fill="#D2691E"/>
  <!-- Chair positions -->
  <rect x="0" y="30" width="8" height="40" rx="2" ry="2" fill="#654321"/>
  <rect x="112" y="30" width="8" height="40" rx="2" ry="2" fill="#654321"/>
  <rect x="20" y="0" width="25" height="8" rx="2" ry="2" fill="#654321"/>
  <rect x="47.5" y="0" width="25" height="8" rx="2" ry="2" fill="#654321"/>
  <rect x="75" y="0" width="25" height="8" rx="2" ry="2" fill="#654321"/>
  <rect x="20" y="92" width="25" height="8" rx="2" ry="2" fill="#654321"/>
  <rect x="47.5" y="92" width="25" height="8" rx="2" ry="2" fill="#654321"/>
  <rect x="75" y="92" width="25" height="8" rx="2" ry="2" fill="#654321"/>
  <!-- Table number area -->
  <circle cx="60" cy="50" r="12" fill="#F5F5DC" stroke="#8B4513"/>
  <text x="60" y="56" text-anchor="middle" font-family="Arial, sans-serif" font-size="14" fill="#8B4513">6</text>
</svg>
