<?xml version="1.0" encoding="UTF-8"?>
<svg width="100" height="80" viewBox="0 0 100 80" xmlns="http://www.w3.org/2000/svg">
  <!-- Washroom structure -->
  <rect x="5" y="5" width="90" height="70" rx="8" ry="8" fill="#E0E0E0" stroke="#999999" stroke-width="2"/>
  <rect x="8" y="8" width="84" height="64" rx="6" ry="6" fill="#F5F5F5"/>
  
  <!-- Door -->
  <rect x="78" y="25" width="14" height="30" rx="2" ry="2" fill="#FFFFFF" stroke="#999999" stroke-width="1"/>
  <!-- Door handle -->
  <circle cx="80" cy="40" r="1.5" fill="#666666"/>
  
  <!-- Male figure -->
  <g transform="translate(20, 20)">
    <circle cx="8" cy="8" r="4" fill="#333333"/>
    <rect x="6" y="12" width="4" height="12" fill="#333333"/>
    <rect x="5" y="18" width="2" height="6" fill="#333333"/>
    <rect x="9" y="18" width="2" height="6" fill="#333333"/>
  </g>
  
  <!-- Female figure -->
  <g transform="translate(45, 20)">
    <circle cx="8" cy="8" r="4" fill="#333333"/>
    <polygon points="4,12 12,12 10,18 6,18" fill="#333333"/>
    <rect x="6" y="18" width="2" height="6" fill="#333333"/>
    <rect x="8" y="18" width="2" height="6" fill="#333333"/>
  </g>
  
  <!-- WC label -->
  <rect x="25" y="50" width="50" height="15" rx="3" ry="3" fill="#8B4513"/>
  <text x="50" y="61" text-anchor="middle" font-family="Arial, sans-serif" font-size="10" fill="#F5F5DC">WASHROOM</text>
</svg>
